<?xml version="1.0" encoding="UTF-8" standalone="no"?>
<svg
   xmlns:dc="http://purl.org/dc/elements/1.1/"
   xmlns:cc="http://creativecommons.org/ns#"
   xmlns:rdf="http://www.w3.org/1999/02/22-rdf-syntax-ns#"
   xmlns:svg="http://www.w3.org/2000/svg"
   xmlns="http://www.w3.org/2000/svg"
   xmlns:sodipodi="http://sodipodi.sourceforge.net/DTD/sodipodi-0.dtd"
   xmlns:inkscape="http://www.inkscape.org/namespaces/inkscape"
   sodipodi:docname="de-nepo-value-propositions.svg"
   inkscape:version="1.0 (4035a4f, 2020-05-01)"
   id="svg8"
   version="1.1"
   viewBox="0 0 600 500"
   height="500mm"
   width="600mm">
  <defs
     id="defs2">
    <style
       id="style833">
      @font-face {
        font-family: &quot;Virgil&quot;;
        src: url(&quot;https://excalidraw.com/Virgil.woff2&quot;);
      }
      @font-face {
        font-family: &quot;Cascadia&quot;;
        src: url(&quot;https://excalidraw.com/Cascadia.woff2&quot;);
      }
    </style>
  </defs>
  <sodipodi:namedview
     inkscape:window-maximized="0"
     inkscape:window-y="0"
     inkscape:window-x="0"
     inkscape:window-height="1080"
     inkscape:window-width="1920"
     showgrid="false"
     inkscape:document-rotation="0"
     inkscape:current-layer="g1093"
     inkscape:document-units="mm"
     inkscape:cy="906.97413"
     inkscape:cx="603.62655"
     inkscape:zoom="0.35"
     inkscape:pageshadow="2"
     inkscape:pageopacity="0.0"
     borderopacity="1.0"
     bordercolor="#666666"
     pagecolor="#ffffff"
     id="base" />
  <metadata
     id="metadata5">
    <rdf:RDF>
      <cc:Work
         rdf:about="">
        <dc:format>image/svg+xml</dc:format>
        <dc:type
           rdf:resource="http://purl.org/dc/dcmitype/StillImage" />
        <dc:title></dc:title>
      </cc:Work>
    </rdf:RDF>
  </metadata>
  <g
     id="layer1"
     inkscape:groupmode="layer"
     inkscape:label="Layer 1">
    <g
       transform="matrix(0.52916667,0,0,0.52916667,-196.58177,-15.803902)"
       id="g1093">
      <g
         stroke-linecap="round"
         transform="translate(646.41964,213.14588)"
         id="g839">
        <path
           d="m 301,0 c 77.06,75 154.12,149.99 299,291 M 301,0 c 97.94,95.32 195.87,190.63 299,291 m 0,0 C 505.77,382.08 411.54,473.16 301,580 M 600,291 C 480.98,406.03 361.97,521.07 301,580 m 0,0 C 186.05,469.64 71.11,359.27 0,291 M 301,580 C 211.33,493.9 121.65,407.8 0,291 m 0,0 C 102.88,191.54 205.76,92.08 301,0 M 0,291 C 115.86,178.99 231.71,66.99 301,0"
           stroke="#000000"
           stroke-width="2"
           fill="none"
           id="path837" />
      </g>
      <g
         transform="translate(879.97433,487.43787)"
         id="g843">
        <text
           x="-11"
           y="33"
           font-family="Helvetica, 'Segoe UI Emoji'"
           font-size="36px"
           fill="#000000"
           text-anchor="start"
           style="white-space:pre"
           direction="ltr"
           id="text841">De Nepo</text>
      </g>
      <g
         transform="translate(374.85714,74.285714)"
         stroke-linecap="round"
         id="g855">
        <g
           transform="translate(571.65039,373.47931)"
           id="g847">
          <path
             d="M 0,0 C 0,-36.67 0,-183.33 0,-220 M 0,0 c 0,-36.67 0,-183.33 0,-220"
             stroke="#000000"
             stroke-width="2"
             fill="none"
             id="path845" />
        </g>
        <g
           transform="translate(571.65039,373.47931)"
           id="g853">
          <path
             d="m 0,-220 6.34,13.59 H -6.34 L 0,-220"
             stroke="none"
             stroke-width="0"
             fill="#000000"
             fill-rule="evenodd"
             id="path849" />
          <path
             d="m 0,-220 c 1.84,3.94 3.67,7.88 6.34,13.59 M 0,-220 c 1.68,3.61 3.36,7.21 6.34,13.59 m 0,0 c -2.66,0 -5.32,0 -12.68,0 m 12.68,0 c -3.27,0 -6.54,0 -12.68,0 m 0,0 c 1.53,-3.28 3.06,-6.56 6.34,-13.59 m -6.34,13.59 C -4,-211.42 -1.67,-216.42 0,-220 m 0,0 c 0,0 0,0 0,0 m 0,0 c 0,0 0,0 0,0"
             stroke="#000000"
             stroke-width="2"
             fill="none"
             id="path851" />
        </g>
      </g>
      <g
         transform="translate(374.85714,74.285714)"
         stroke-linecap="round"
         id="g867">
        <g
           transform="rotate(180,285.8252,86.739655)"
           id="g859">
          <path
             d="M 0,0 C 0,-36.67 0,-183.33 0,-220 M 0,0 c 0,-36.67 0,-183.33 0,-220"
             stroke="#000000"
             stroke-width="2"
             fill="none"
             id="path857" />
        </g>
        <g
           transform="rotate(180,285.8252,86.739655)"
           id="g865">
          <path
             d="m 0,-220 6.34,13.59 H -6.34 L 0,-220"
             stroke="none"
             stroke-width="0"
             fill="#000000"
             fill-rule="evenodd"
             id="path861" />
          <path
             d="m 0,-220 c 1.87,4.02 3.75,8.04 6.34,13.59 M 0,-220 c 1.47,3.16 2.94,6.31 6.34,13.59 m 0,0 c -2.98,0 -5.96,0 -12.68,0 m 12.68,0 c -3.56,0 -7.11,0 -12.68,0 m 0,0 c 2.26,-4.85 4.52,-9.7 6.34,-13.59 m -6.34,13.59 C -4.9,-209.5 -3.45,-212.6 0,-220 m 0,0 c 0,0 0,0 0,0 m 0,0 c 0,0 0,0 0,0"
             stroke="#000000"
             stroke-width="2"
             fill="none"
             id="path863" />
        </g>
      </g>
      <g
         transform="translate(374.85714,74.285714)"
         stroke-linecap="round"
         id="g879">
        <g
           transform="rotate(90,125.75221,559.23152)"
           id="g871">
          <path
             d="M 0,0 C 0,-24.44 0,-122.22 0,-146.67 M 0,0 c 0,-24.44 0,-122.22 0,-146.67"
             stroke="#000000"
             stroke-width="2"
             fill="none"
             id="path869" />
        </g>
        <g
           transform="rotate(90,125.75221,559.23152)"
           id="g877">
          <path
             d="m 0,-146.67 6.34,13.6 H -6.34 L 0,-146.67"
             stroke="none"
             stroke-width="0"
             fill="#000000"
             fill-rule="evenodd"
             id="path873" />
          <path
             d="m 0,-146.67 c 2.19,4.69 4.37,9.38 6.34,13.6 M 0,-146.67 c 1.62,3.47 3.23,6.94 6.34,13.6 m 0,0 c -3.77,0 -7.54,0 -12.68,0 m 12.68,0 c -2.72,0 -5.44,0 -12.68,0 m 0,0 c 2.14,-4.59 4.28,-9.18 6.34,-13.6 m -6.34,13.6 c 2.35,-5.03 4.69,-10.06 6.34,-13.6 m 0,0 c 0,0 0,0 0,0 m 0,0 c 0,0 0,0 0,0"
             stroke="#000000"
             stroke-width="2"
             fill="none"
             id="path875" />
        </g>
      </g>
      <g
         transform="translate(374.85714,74.285714)"
         stroke-linecap="round"
         id="g891">
        <g
           transform="rotate(-90,625.89818,-192.41887)"
           id="g883">
          <path
             d="M 0,0 C 0,-24.44 0,-122.22 0,-146.67 M 0,0 c 0,-24.44 0,-122.22 0,-146.67"
             stroke="#000000"
             stroke-width="2"
             fill="none"
             id="path881" />
        </g>
        <g
           transform="rotate(-90,625.89818,-192.41887)"
           id="g889">
          <path
             d="m 0,-146.67 6.34,13.6 H -6.34 L 0,-146.67"
             stroke="none"
             stroke-width="0"
             fill="#000000"
             fill-rule="evenodd"
             id="path885" />
          <path
             d="m 0,-146.67 c 1.3,2.78 2.59,5.56 6.34,13.6 M 0,-146.67 c 2.03,4.36 4.06,8.71 6.34,13.6 m 0,0 c -4.13,0 -8.26,0 -12.68,0 m 12.68,0 c -4.35,0 -8.7,0 -12.68,0 m 0,0 c 2.39,-5.12 4.77,-10.23 6.34,-13.6 m -6.34,13.6 c 2.04,-4.38 4.08,-8.75 6.34,-13.6 m 0,0 c 0,0 0,0 0,0 m 0,0 c 0,0 0,0 0,0"
             stroke="#000000"
             stroke-width="2"
             fill="none"
             id="path887" />
        </g>
      </g>
      <g
         transform="translate(374.85714,74.285714)"
         stroke-linecap="round"
         id="g903">
        <g
           transform="rotate(90,-54.247793,379.23152)"
           id="g895">
          <path
             d="M 0,0 C 0,-24.44 0,-122.22 0,-146.67 M 0,0 c 0,-24.44 0,-122.22 0,-146.67"
             stroke="#000000"
             stroke-width="2"
             fill="none"
             id="path893" />
        </g>
        <g
           transform="rotate(90,-54.247793,379.23152)"
           id="g901">
          <path
             d="m 0,-146.67 6.34,13.6 H -6.34 L 0,-146.67"
             stroke="none"
             stroke-width="0"
             fill="#000000"
             fill-rule="evenodd"
             id="path897" />
          <path
             d="m 0,-146.67 c 1.81,3.89 3.63,7.78 6.34,13.6 M 0,-146.67 c 1.86,4 3.73,8 6.34,13.6 m 0,0 c -4.98,0 -9.95,0 -12.68,0 m 12.68,0 c -4.72,0 -9.43,0 -12.68,0 m 0,0 c 2.15,-4.61 4.3,-9.23 6.34,-13.6 m -6.34,13.6 c 1.9,-4.07 3.8,-8.14 6.34,-13.6 m 0,0 c 0,0 0,0 0,0 m 0,0 c 0,0 0,0 0,0"
             stroke="#000000"
             stroke-width="2"
             fill="none"
             id="path899" />
        </g>
      </g>
      <g
         transform="translate(374.85714,74.285714)"
         stroke-linecap="round"
         id="g915">
        <g
           transform="rotate(-90,445.89818,-12.418874)"
           id="g907">
          <path
             d="M 0,0 C 0,-24.44 0,-122.22 0,-146.67 M 0,0 c 0,-24.44 0,-122.22 0,-146.67"
             stroke="#000000"
             stroke-width="2"
             fill="none"
             id="path905" />
        </g>
        <g
           transform="rotate(-90,445.89818,-12.418874)"
           id="g913">
          <path
             d="m 0,-146.67 6.34,13.6 H -6.34 L 0,-146.67"
             stroke="none"
             stroke-width="0"
             fill="#000000"
             fill-rule="evenodd"
             id="path909" />
          <path
             d="m 0,-146.67 c 1.66,3.56 3.32,7.12 6.34,13.6 M 0,-146.67 c 1.33,2.85 2.65,5.69 6.34,13.6 m 0,0 c -4.27,0 -8.54,0 -12.68,0 m 12.68,0 c -3.56,0 -7.12,0 -12.68,0 m 0,0 c 1.66,-3.57 3.32,-7.13 6.34,-13.6 m -6.34,13.6 c 1.37,-2.94 2.74,-5.88 6.34,-13.6 m 0,0 c 0,0 0,0 0,0 m 0,0 c 0,0 0,0 0,0"
             stroke="#000000"
             stroke-width="2"
             fill="none"
             id="path911" />
        </g>
      </g>
      <g
         transform="translate(374.85714,74.285714)"
         stroke-linecap="round"
         id="g927">
        <g
           transform="translate(571.65039,673.47931)"
           id="g919">
          <path
             d="M 0,0 C 0,-33.33 0,-166.67 0,-200 M 0,0 c 0,-33.33 0,-166.67 0,-200"
             stroke="#000000"
             stroke-width="2"
             fill="none"
             id="path917" />
        </g>
        <g
           transform="translate(571.65039,673.47931)"
           id="g925">
          <path
             d="m 0,-200 6.34,13.59 H -6.34 L 0,-200"
             stroke="none"
             stroke-width="0"
             fill="#000000"
             fill-rule="evenodd"
             id="path921" />
          <path
             d="m 0,-200 c 1.94,4.17 3.89,8.33 6.34,13.59 M 0,-200 c 2.14,4.59 4.28,9.19 6.34,13.59 m 0,0 c -3.38,0 -6.75,0 -12.68,0 m 12.68,0 c -3.76,0 -7.51,0 -12.68,0 m 0,0 c 2.22,-4.75 4.43,-9.5 6.34,-13.59 m -6.34,13.59 c 1.29,-2.75 2.57,-5.51 6.34,-13.59 m 0,0 c 0,0 0,0 0,0 m 0,0 c 0,0 0,0 0,0"
             stroke="#000000"
             stroke-width="2"
             fill="none"
             id="path923" />
        </g>
      </g>
      <g
         transform="translate(374.85714,74.285714)"
         stroke-linecap="round"
         id="g939">
        <g
           transform="rotate(180,285.8252,236.73965)"
           id="g931">
          <path
             d="M 0,0 C 0,-36.67 0,-183.33 0,-220 M 0,0 c 0,-36.67 0,-183.33 0,-220"
             stroke="#000000"
             stroke-width="2"
             fill="none"
             id="path929" />
        </g>
        <g
           transform="rotate(180,285.8252,236.73965)"
           id="g937">
          <path
             d="m 0,-220 6.34,13.59 H -6.34 L 0,-220"
             stroke="none"
             stroke-width="0"
             fill="#000000"
             fill-rule="evenodd"
             id="path933" />
          <path
             d="m 0,-220 c 2.15,4.61 4.3,9.22 6.34,13.59 M 0,-220 c 1.9,4.07 3.8,8.14 6.34,13.59 m 0,0 c -3.87,0 -7.73,0 -12.68,0 m 12.68,0 c -5.01,0 -10.02,0 -12.68,0 m 0,0 c 2.03,-4.34 4.05,-8.69 6.34,-13.59 m -6.34,13.59 c 1.8,-3.85 3.6,-7.71 6.34,-13.59 m 0,0 c 0,0 0,0 0,0 m 0,0 c 0,0 0,0 0,0"
             stroke="#000000"
             stroke-width="2"
             fill="none"
             id="path935" />
        </g>
      </g>
      <g
         stroke-linecap="round"
         transform="matrix(1.0581752,0,0,1,384.85714,477.86756)"
         id="g943">
        <path
           d="m 10.85,0 m 0,0 c 61.37,0 122.73,0 205.9,0 M 10.85,0 c 44.97,0 89.94,0 205.9,0 m 0,0 c 7.23,0 10.85,3.62 10.85,10.85 M 216.75,0 c 7.23,0 10.85,3.62 10.85,10.85 m 0,0 c 0,6.77 0,13.54 0,21.71 m 0,-21.71 c 0,6.07 0,12.14 0,21.71 m 0,0 c 0,7.24 -3.62,10.86 -10.85,10.86 M 227.6,32.56 c 0,7.24 -3.62,10.86 -10.85,10.86 m 0,0 c -43.91,0 -87.82,0 -205.9,0 m 205.9,0 c -58.66,0 -117.31,0 -205.9,0 m 0,0 C 3.62,43.42 0,39.8 0,32.56 M 10.85,43.42 C 3.62,43.42 0,39.8 0,32.56 m 0,0 C 0,24.51 0,16.45 0,10.85 M 0,32.56 C 0,27.1 0,21.63 0,10.85 m 0,0 C 0,3.62 3.62,0 10.85,0 M 0,10.85 C 0,3.62 3.62,0 10.85,0"
           stroke="#000000"
           stroke-width="2"
           fill="none"
           id="path941" />
      </g>
      <g
         transform="translate(395.28683,482.15491)"
         id="g947">
        <text
           x="0"
           y="26"
           font-family="Helvetica, 'Segoe UI Emoji'"
           font-size="28px"
           fill="#000000"
           text-anchor="start"
           style="white-space:pre"
           direction="ltr"
           id="text945">CE Researchers</text>
      </g>
      <g
         stroke-linecap="round"
         transform="matrix(1.0535531,0,0,0.80948994,1256.4148,473.58761)"
         id="g951">
        <path
           d="m 18.5,0 m 0,0 c 70.17,0 140.34,0 183,0 m -183,0 c 47.68,0 95.36,0 183,0 m 0,0 C 213.83,0 220,6.17 220,18.5 M 201.5,0 C 213.83,0 220,6.17 220,18.5 m 0,0 c 0,10.83 0,21.65 0,37 m 0,-37 c 0,14.08 0,28.15 0,37 m 0,0 C 220,67.83 213.83,74 201.5,74 M 220,55.5 C 220,67.83 213.83,74 201.5,74 m 0,0 c -71.4,0 -142.79,0 -183,0 m 183,0 c -62.19,0 -124.39,0 -183,0 m 0,0 C 6.17,74 0,67.83 0,55.5 M 18.5,74 C 6.17,74 0,67.83 0,55.5 m 0,0 C 0,44.85 0,34.21 0,18.5 m 0,37 c 0,-8.34 0,-16.68 0,-37 m 0,0 C 0,6.17 6.17,0 18.5,0 M 0,18.5 C 0,6.17 6.17,0 18.5,0"
           stroke="#000000"
           stroke-width="2"
           fill="none"
           id="path949" />
      </g>
      <g
         transform="translate(886.55762,406.20416)"
         id="g955">
        <text
           x="484.85715"
           y="106.28571"
           font-family="Helvetica, 'Segoe UI Emoji'"
           font-size="28px"
           fill="#000000"
           text-anchor="middle"
           style="white-space:pre"
           direction="ltr"
           id="text953">OS Developers</text>
      </g>
      <g
         style="fill:#000000;fill-opacity:0"
         stroke-linecap="round"
         transform="matrix(1.2492669,0,0,1,866.63741,814.41938)"
         id="g959">
        <path
           style="fill:#000000;fill-opacity:0"
           d="m 10.3,0 m 0,0 C 48.24,0 86.18,0 116.81,0 M 10.3,0 c 36.75,0 73.51,0 106.51,0 m 0,0 c 6.87,0 10.3,3.43 10.3,10.3 M 116.81,0 c 6.87,0 10.3,3.43 10.3,10.3 m 0,0 c 0,5.76 0,11.52 0,20.59 m 0,-20.59 c 0,8.1 0,16.2 0,20.59 m 0,0 c 0,6.86 -3.43,10.3 -10.3,10.3 m 10.3,-10.3 c 0,6.86 -3.43,10.3 -10.3,10.3 m 0,0 c -41.92,0 -83.84,0 -106.51,0 m 106.51,0 c -33.94,0 -67.88,0 -106.51,0 m 0,0 C 3.43,41.19 0,37.75 0,30.89 m 10.3,10.3 C 3.43,41.19 0,37.75 0,30.89 m 0,0 C 0,22.91 0,14.94 0,10.3 M 0,30.89 C 0,25.65 0,20.41 0,10.3 m 0,0 C 0,3.43 3.43,0 10.3,0 M 0,10.3 C 0,3.43 3.43,0 10.3,0"
           stroke="#000000"
           stroke-width="2"
           fill="none"
           id="path957" />
      </g>
      <g
         transform="translate(877.02804,817.04047)"
         id="g963">
        <text
           x="0"
           y="26"
           font-family="Helvetica, 'Segoe UI Emoji'"
           font-size="28px"
           fill="#000000"
           text-anchor="start"
           style="white-space:pre"
           direction="ltr"
           id="text961">Educators</text>
      </g>
      <g
         stroke-linecap="round"
         transform="matrix(1.0892145,0,0,1,884.70577,84.285714)"
         id="g967">
        <path
           d="m 10.3,0 m 0,0 C 49.23,0 88.16,0 116.81,0 M 10.3,0 c 32.23,0 64.46,0 106.51,0 m 0,0 c 6.87,0 10.3,3.43 10.3,10.3 M 116.81,0 c 6.87,0 10.3,3.43 10.3,10.3 m 0,0 c 0,8.09 0,16.18 0,20.59 m 0,-20.59 c 0,4.6 0,9.2 0,20.59 m 0,0 c 0,6.86 -3.43,10.3 -10.3,10.3 m 10.3,-10.3 c 0,6.86 -3.43,10.3 -10.3,10.3 m 0,0 c -40.95,0 -81.89,0 -106.51,0 m 106.51,0 c -29.55,0 -59.09,0 -106.51,0 m 0,0 C 3.43,41.19 0,37.75 0,30.89 m 10.3,10.3 C 3.43,41.19 0,37.75 0,30.89 m 0,0 C 0,25.53 0,20.17 0,10.3 M 0,30.89 C 0,24.62 0,18.34 0,10.3 m 0,0 C 0,3.43 3.43,0 10.3,0 M 0,10.3 C 0,3.43 3.43,0 10.3,0"
           stroke="#000000"
           stroke-width="2"
           fill="none"
           id="path965" />
      </g>
      <g
         transform="translate(894.2712,89.631417)"
         id="g971">
        <text
           x="0"
           y="26"
           font-family="Helvetica, 'Segoe UI Emoji'"
           font-size="28px"
           fill="#000000"
           text-anchor="start"
           style="white-space:pre"
           direction="ltr"
           id="text969">Learners</text>
      </g>
      <g
         transform="translate(897.5671,131.4596)"
         id="g979">
        <text
           x="55"
           y="19"
           font-family="Helvetica, 'Segoe UI Emoji'"
           font-size="20px"
           fill="#000000"
           text-anchor="middle"
           style="white-space:pre"
           direction="ltr"
           id="text973">relevant,</text>
        <text
           x="55"
           y="42"
           font-family="Helvetica, 'Segoe UI Emoji'"
           font-size="20px"
           fill="#000000"
           text-anchor="middle"
           style="white-space:pre"
           direction="ltr"
           id="text975">accessible</text>
        <text
           x="55"
           y="65"
           font-family="Helvetica, 'Segoe UI Emoji'"
           font-size="20px"
           fill="#000000"
           text-anchor="middle"
           style="white-space:pre"
           direction="ltr"
           id="text977">education</text>
      </g>
      <g
         transform="translate(1308.0456,547.25135)"
         id="g985">
        <text
           x="59.5"
           y="19"
           font-family="Helvetica, 'Segoe UI Emoji'"
           font-size="20px"
           fill="#000000"
           text-anchor="middle"
           style="white-space:pre"
           direction="ltr"
           id="text981">fun, impactful</text>
        <text
           x="59.5"
           y="42"
           font-family="Helvetica, 'Segoe UI Emoji'"
           font-size="20px"
           fill="#000000"
           text-anchor="middle"
           style="white-space:pre"
           direction="ltr"
           id="text983">side projects</text>
      </g>
      <g
         transform="translate(853.96359,867.3147)"
         id="g993">
        <text
           x="93.5"
           y="19"
           font-family="Helvetica, 'Segoe UI Emoji'"
           font-size="20px"
           fill="#000000"
           text-anchor="middle"
           style="white-space:pre"
           direction="ltr"
           id="text987">easy, flexible </text>
        <text
           x="93.5"
           y="42"
           font-family="Helvetica, 'Segoe UI Emoji'"
           font-size="20px"
           fill="#000000"
           text-anchor="middle"
           style="white-space:pre"
           direction="ltr"
           id="text989">content creation and </text>
        <text
           x="93.5"
           y="65"
           font-family="Helvetica, 'Segoe UI Emoji'"
           font-size="20px"
           fill="#000000"
           text-anchor="middle"
           style="white-space:pre"
           direction="ltr"
           id="text991">class management</text>
      </g>
      <g
         transform="translate(441.87374,533.52198)"
         id="g1001">
        <text
           x="54"
           y="19"
           font-family="Helvetica, 'Segoe UI Emoji'"
           font-size="20px"
           fill="#000000"
           text-anchor="middle"
           style="white-space:pre"
           direction="ltr"
           id="text995"><tspan
             y="19"
             x="54"
             id="tspan1095"
             sodipodi:role="line">inspiration,</tspan><tspan
             y="44"
             x="54"
             id="tspan1097"
             sodipodi:role="line">prototypes,</tspan><tspan
             id="tspan1099"
             y="69"
             x="54"
             sodipodi:role="line">and impact</tspan></text>
        <text
           x="54"
           y="42"
           font-family="Helvetica, 'Segoe UI Emoji'"
           font-size="20px"
           fill="#000000"
           text-anchor="middle"
           style="white-space:pre"
           direction="ltr"
           id="text997" />
        <text
           x="54"
           y="65"
           font-family="Helvetica, 'Segoe UI Emoji'"
           font-size="20px"
           fill="#000000"
           text-anchor="middle"
           style="white-space:pre"
           direction="ltr"
           id="text999" />
      </g>
    </g>
  </g>
</svg>
